<?xml version="1.0" encoding="UTF-8"?>
<svg id="Logo" xmlns="http://www.w3.org/2000/svg" viewBox="0 0 114.25838 40.5833">
  <defs>
    <style>
      .cls-1 {
        fill: #1d1d1b;
      }

      .cls-2 {
        fill: #2e7889;
      }

      .cls-3 {
        fill: #273641;
      }

      .cls-4 {
        fill: #273741;
      }
    </style>
  </defs>
  <g>
    <g>
      <polygon class="cls-2" points="29.63408 10.66554 27.30038 5.36743 26.81626 8.32924 23.99537 9.35361 29.63408 10.66554"/>
      <path class="cls-2" d="m29.57746,10.90898l-5.63867-1.31152-.02881-.47852,2.68311-.97461.46094-2.81738.47559-.06006,2.3335,5.29785-.28564.34424Z"/>
    </g>
    <path class="cls-2" d="m29.19319,40.5833c-5.14746-1.73389-10.73584-5.14502-15.73584-9.60547C8.05989,26.16289,3.86897,20.62578,1.65657,15.38603-.64275,9.94121-.54558,5.41386,1.93,2.63896,6.45344-2.43331,17.58918-.01876,28.40705,8.37919l.36035.28271-1.05566,1.33203-.34766-.27197C17.43684,2.01445,7.0467-.54366,3.19856,3.7708c-2.01367,2.25732-2.00537,6.14795.02441,10.9541,2.11621,5.01221,6.15283,10.3335,11.36621,14.98438,4.83252,4.31104,10.21191,7.60059,15.14697,9.2627l-.54297,1.61133Z"/>
  </g>
  <g>
    <polygon class="cls-3" points="49.22232 28.20649 51.24364 33.6315 51.89935 30.70288 54.77508 29.84446 49.22232 28.20649"/>
    <path class="cls-3" d="m51.00911,33.71904l-2.021-5.42529.30518-.32715,5.55273,1.63818.00049.47949-2.73535.81641-.62354,2.78564-.47852.03271Z"/>
  </g>
  <g>
    <g>
      <path class="cls-1" d="m27.91682,24.70634v-10.08203h6.51172v1.58203h-4.82422v2.48535h3.98389v1.58301h-3.98389v2.84961h4.82422v1.58203h-6.51172Z"/>
      <path class="cls-1" d="m40.83479,24.9163c-1.0083,0-1.87207-.2207-2.59082-.66113-.71875-.44141-1.27051-1.05664-1.65576-1.8457-.38477-.78809-.57764-1.70312-.57764-2.74414s.19287-1.95605.57764-2.74414c.38525-.78906.93701-1.4043,1.65576-1.8457.71875-.44043,1.58252-.66113,2.59082-.66113,1.16211,0,2.13086.29004,2.90527.87207.7749.58105,1.31885,1.36328,1.63135,2.34863l-1.70117.46875c-.1958-.6582-.52979-1.17285-1.00098-1.54395-.47168-.37109-1.08301-.55664-1.83447-.55664-.67676,0-1.24072.15234-1.69092.45508-.45068.30371-.78906.72949-1.01514,1.27832-.22656.54883-.34229,1.19141-.34668,1.92871,0,.7373.11328,1.38086.33984,1.92871.22607.54883.56543.97461,1.01855,1.27832.45264.30273,1.01758.45508,1.69434.45508.75146,0,1.36279-.18652,1.83447-.56055.47119-.37305.80518-.88672,1.00098-1.54004l1.70117.46875c-.3125.98535-.85645,1.76758-1.63135,2.34863-.77441.58203-1.74316.87207-2.90527.87207Z"/>
      <path class="cls-1" d="m51.63752,24.9163c-1.0083,0-1.87207-.2207-2.59082-.66113-.71875-.44141-1.27051-1.05664-1.65576-1.8457-.38477-.78809-.57764-1.70312-.57764-2.74414s.19287-1.95605.57764-2.74414c.38525-.78906.93701-1.4043,1.65576-1.8457.71875-.44043,1.58252-.66113,2.59082-.66113s1.87256.2207,2.59375.66113c.72119.44141,1.27441,1.05664,1.65967,1.8457.38477.78809.57764,1.70312.57764,2.74414s-.19287,1.95605-.57764,2.74414c-.38525.78906-.93848,1.4043-1.65967,1.8457-.72119.44043-1.58545.66113-2.59375.66113Zm0-1.58887c.67676.00391,1.24023-.14453,1.69092-.44824.4502-.30371.78857-.73047,1.01514-1.28125.22607-.55078.33936-1.19531.33936-1.93262s-.11328-1.37793-.33936-1.92188c-.22656-.54395-.56494-.96777-1.01514-1.27051-.45068-.30371-1.01416-.45996-1.69092-.46973-.67676-.00391-1.23926.14551-1.6875.44824-.44824.30371-.78516.73047-1.01172,1.28125s-.33936,1.19531-.33936,1.93262.11182,1.37793.33594,1.92188.56104.96777,1.01172,1.27051c.4502.30371,1.01416.45996,1.69092.46973Z"/>
      <path class="cls-1" d="m58.33039,24.70634v-10.08203h1.7085l4.67676,7.10645v-7.10645h1.7085v10.08203h-1.7085l-4.67676-7.10645v7.10645h-1.7085Z"/>
    </g>
    <g>
      <path class="cls-1" d="m68.70491,18.02665v-.88184h4.95703v.88184h-4.95703Zm4.95703,6.67969c-.4248.08887-.84375.12402-1.25684.10547-.41309-.01953-.78174-.10742-1.10645-.2666-.32422-.1582-.57031-.40625-.73828-.74219-.13574-.28027-.20898-.56348-.2207-.85059s-.01758-.61523-.01758-.9834v-6.9248h1.02246v6.88281c0,.31738.00342.58203.01025.79395.00684.21289.05469.40039.14355.56445.16797.3125.43506.49902.80176.55957.36621.06055.82031.04688,1.36182-.04199v.90332Z"/>
      <path class="cls-1" d="m75.61506,24.70634v-7.56152h.92432v1.82031l-.18213-.23828c.08398-.22363.19385-.43066.3291-.61914.13525-.18945.28271-.34473.44141-.46582.1958-.17285.42432-.30469.68604-.39551.26123-.09082.5249-.14453.79102-.16113s.50879.00391.72803.05957v.96582c-.27539-.06934-.57617-.08594-.90283-.04883-.32715.03809-.62793.16797-.90332.39258-.25195.19531-.44092.43066-.56689.70312-.12646.27344-.21045.5625-.25244.86816s-.06299.6084-.06299.90723v3.77344h-1.0293Z"/>
      <path class="cls-1" d="m80.98518,15.70927v-1.15527h1.0293v1.15527h-1.0293Zm0,8.99707v-7.56152h1.0293v7.56152h-1.0293Z"/>
      <path class="cls-1" d="m84.56965,24.70634v-10.08203h1.03613v4.38965h-.11182v5.69238h-.92432Zm3.40283.20996c-.6958,0-1.28369-.17578-1.76465-.52832-.48047-.35254-.84473-.83105-1.0918-1.43555-.24756-.60449-.37109-1.28223-.37109-2.03418,0-.76465.12451-1.44824.37451-2.04785.24951-.59961.61719-1.07227,1.10254-1.41797.48535-.34473,1.08301-.51758,1.79248-.51758.69043,0,1.28369.1748,1.77832.52539.49463.34961.87402.82617,1.1377,1.42773.26367.60254.39551,1.2793.39551,2.03027,0,.75684-.13281,1.43555-.39893,2.03809-.26611.60156-.64893,1.0791-1.14844,1.43164s-1.10156.52832-1.80615.52832Zm-.10498-.95898c.52734,0,.96582-.13281,1.31592-.39941.3501-.26562.61279-.62891.78809-1.08887.1748-.45898.26221-.97656.26221-1.55078,0-.56934-.08643-1.08203-.25879-1.54004-.17285-.45703-.43555-.81934-.7876-1.08496-.35254-.2666-.7998-.39941-1.34082-.39941-.52783,0-.96533.12891-1.31299.38477-.34766.25684-.60791.61328-.78076,1.06836-.17236.45508-.25879.97852-.25879,1.57129,0,.58398.08643,1.10547.25879,1.56543.17285.45996.43408.82031.78418,1.08105.3501.26172.79346.39258,1.33057.39258Z"/>
      <path class="cls-1" d="m96.21955,24.8958c-.45264,0-.84814-.07031-1.18652-.21094-.33838-.13965-.62549-.32812-.86133-.56641s-.42578-.50977-.57031-.81543c-.14502-.30566-.25-.63086-.31543-.97363s-.09766-.68457-.09766-1.02539v-4.15918h1.03613v3.85742c0,.41602.03955.80078.11914,1.15527.0791.35547.20654.66406.38135.92773.17529.26367.40137.46875.6792.61328s.61475.2168,1.01172.2168c.36426,0,.68506-.06348.9624-.18945.27783-.12598.51123-.30664.7002-.54199.18945-.23633.33252-.52344.43066-.86133.09814-.33887.14697-.71973.14697-1.14453l.72852.16113c0,.77441-.13574,1.42578-.40625,1.95312-.271.52734-.64404.92676-1.12012,1.19727s-1.02246.40625-1.63867.40625Zm2.5415-.18945v-1.8623h-.10498v-5.69922h1.0293v7.56152h-.92432Z"/>
      <path class="cls-1" d="m100.98762,18.02665v-.88184h4.95703v.88184h-4.95703Zm4.95703,6.67969c-.4248.08887-.84375.12402-1.25684.10547-.41309-.01953-.78174-.10742-1.10645-.2666-.32422-.1582-.57031-.40625-.73828-.74219-.13574-.28027-.20898-.56348-.2207-.85059s-.01758-.61523-.01758-.9834v-6.9248h1.02246v6.88281c0,.31738.00342.58203.01025.79395.00684.21289.05469.40039.14355.56445.16797.3125.43506.49902.80176.55957.36621.06055.82031.04688,1.36182-.04199v.90332Z"/>
      <path class="cls-1" d="m110.8177,24.9163c-.7373,0-1.37549-.16309-1.91455-.49023-.53906-.32617-.9585-.78613-1.25684-1.37891-.29883-.59277-.44824-1.28809-.44824-2.08691,0-.82617.14697-1.54004.44092-2.1416.29443-.60254.7085-1.06738,1.24316-1.39355.53418-.32715,1.16553-.49023,1.89355-.49023.74707,0,1.38379.17188,1.91162.51465.52734.34277.92627.83398,1.19727,1.47363.27051.63965.39404,1.40234.37109,2.28906h-1.05029v-.36328c-.01855-.98047-.22998-1.7207-.63379-2.21973s-.99316-.74902-1.76758-.74902c-.8125,0-1.43457.26367-1.86621.79102s-.64746,1.2793-.64746,2.25488c0,.95215.21582,1.69043.64746,2.21582.43164.52441,1.04443.78711,1.83789.78711.5415,0,1.01416-.125,1.41797-.37402.40381-.25.72217-.61035.95557-1.08203l.95947.37109c-.29883.6582-.73877,1.16797-1.31982,1.5293-.58105.3623-1.23828.54297-1.97119.54297Zm-2.8916-3.7041v-.86035h5.77637v.86035h-5.77637Z"/>
    </g>
  </g>
  <path class="cls-4" d="m46.89241,40.21318c-6.75488.00049-16.54688-2.94092-23.44482-7.76709-6.44873-4.5127-10.2793-8.80273-12.41943-13.90918l.92188-.38672c2.06348,4.92236,5.78613,9.07861,12.0708,13.47656,10.30713,7.21191,26.4248,9.58203,29.16016,5.68262.57959-.82666.79541-1.82471.60791-2.81104-.27783-1.45801-1.40967-2.87793-3.27344-4.10596l.55078-.83496c2.646,1.74414,3.4751,3.54785,3.70459,4.75391.23877,1.25391-.03516,2.52246-.77148,3.57227-1.12012,1.59668-3.73535,2.32959-7.10693,2.32959Z"/>
</svg>